<?xml version="1.0" standalone="no"?>
<!DOCTYPE svg PUBLIC "-//W3C//DTD SVG 20010904//EN"
 "http://www.w3.org/TR/2001/REC-SVG-20010904/DTD/svg10.dtd">
<svg version="1.0" xmlns="http://www.w3.org/2000/svg"
 width="180.000000pt" height="180.000000pt" viewBox="0 0 180.000000 180.000000"
 preserveAspectRatio="xMidYMid meet">
<metadata>
Created by potrace 1.14, written by Peter Selinger 2001-2017
</metadata>
<g transform="translate(0.000000,180.000000) scale(0.100000,-0.100000)"
fill="#000000" stroke="none">
<path d="M0 900 l0 -900 900 0 900 0 0 900 0 900 -900 0 -900 0 0 -900z m1160
615 c127 -65 208 -240 228 -497 4 -54 7 -98 5 -98 -1 0 -33 15 -70 34 -304
150 -642 153 -884 7 -63 -38 -64 -39 -73 -17 -4 11 -5 75 -2 141 9 187 50 300
139 382 69 64 122 77 291 69 78 -3 159 -1 181 4 57 12 130 3 185 -25z m-826
-273 c2 -4 -2 -59 -10 -122 -7 -63 -14 -118 -14 -122 0 -18 -150 20 -213 55
-50 28 -82 79 -67 106 12 24 65 66 100 80 30 12 197 14 204 3z m1338 -20 c24
-10 57 -34 75 -52 32 -33 32 -33 15 -63 -32 -54 -181 -117 -280 -117 l-29 0
-12 98 c-7 53 -15 109 -18 124 -5 24 -2 27 28 31 65 9 177 -1 221 -21z m-592
-222 c127 -26 266 -94 334 -164 71 -73 99 -140 94 -224 -5 -86 -28 -133 -98
-202 -71 -70 -169 -122 -296 -156 -85 -22 -120 -26 -244 -27 -176 0 -268 20
-407 89 -100 50 -174 117 -213 194 -31 60 -31 161 -1 223 62 128 224 232 426
273 98 19 296 17 405 -6z m-834 -40 c59 0 65 -6 48 -53 -19 -54 -55 -107 -72
-107 -24 0 -69 39 -86 74 -18 39 -20 64 -7 100 l10 24 38 -19 c20 -10 52 -19
69 -19z m1388 0 c10 -53 -26 -115 -87 -147 -26 -13 -30 -13 -43 4 -21 26 -40
72 -48 116 l-7 37 63 1 c35 0 72 4 83 9 30 13 32 12 39 -20z"/>
<path d="M679 1261 c-53 -53 -35 -138 35 -161 46 -15 99 7 121 49 13 25 22 31
50 31 24 0 35 -5 39 -18 12 -37 55 -67 98 -67 70 0 118 77 87 138 -38 75 -139
75 -177 1 -16 -31 -73 -21 -116 22 -45 45 -95 47 -137 5z"/>
<path d="M715 916 c-150 -48 -235 -132 -235 -233 0 -162 175 -272 415 -260
119 6 199 31 269 85 170 128 106 329 -128 401 -79 24 -254 28 -321 7z m349
-66 c93 -35 144 -116 113 -177 -40 -75 -118 -112 -238 -113 -72 0 -93 4 -137
26 -154 77 -129 221 48 275 51 15 158 10 214 -11z"/>
</g>
</svg>
